<svg style="display: none;">
	

<symbol xmlns="http://www.w3.org/2000/svg" xmlns:xlink="http://www.w3.org/1999/xlink" version="1.0" id="icon1" x="0px" y="0px" viewBox="0 0 200 200" style="enable-background:new 0 0 200 200;" xml:space="preserve">
<style type="text/css">
	.st0{display:none;fill:#BABABA;}
	.st1{fill:none;stroke:#006699;stroke-width:4;stroke-miterlimit:10;}
	.st2{fill:#006699;}
</style>
<g id="Layer_1_1_">
	<path class="st0" d="M114.4,68.1c2.9-0.1,5.9,0,8.8,0c0.4,0,0.7,0,1.2,0V52.8c-1.6-0.2-3.2-0.4-4.8-0.5c-3-0.1-6-0.3-9-0.2   c-4.6,0.1-8.9,1.2-12.7,3.9c-4.4,3.1-6.7,7.5-7.7,12.7c-0.4,2.1-0.5,4.4-0.5,6.5c-0.1,3.4,0,6.8,0,10.3v1.3H75v17h14.5v42.8h17.7   V104h14.5c0.7-5.7,1.5-11.3,2.2-17.1c-1.2,0-2.2,0-3.3,0c-4.1,0-13.5,0-13.5,0s0-8.4,0.1-12.1C107.4,69.8,110.4,68.2,114.4,68.1z"/>
</g>
<circle class="st1" cx="99.5" cy="96.7" r="43.5"/>
<g>
	<path class="st2" d="M105.2,105.3c0-1.5-0.4-2.6-1.3-3.6c-0.8-0.9-2.3-1.8-4.3-2.6c-4-1.5-6.9-3.1-8.9-4.9   c-1.9-1.8-2.9-4.3-2.9-7.5c0-3,1-5.5,2.9-7.4c1.9-1.9,4.5-3.1,7.8-3.4v-5.8h4.3v5.9c3.1,0.5,5.6,1.8,7.4,3.9c1.8,2.2,2.7,5,2.7,8.4   l-0.1,0.1h-7.6c0-2.1-0.4-3.7-1.3-4.9c-0.9-1.1-2.1-1.7-3.6-1.7c-1.5,0-2.7,0.4-3.5,1.3s-1.1,2.1-1.1,3.5c0,1.4,0.4,2.5,1.2,3.4   c0.8,0.9,2.3,1.7,4.4,2.6c4,1.6,6.9,3.2,8.8,5c1.9,1.8,2.9,4.3,2.9,7.5c0,3.1-1,5.6-2.9,7.5c-1.9,1.9-4.5,3-7.8,3.3v5.3h-4.3v-5.3   c-3.4-0.3-6.1-1.5-8.3-3.6c-2.2-2-3.2-5-3.2-9l0.1-0.1h7.6c0,2.4,0.6,4.1,1.7,5.2s2.5,1.6,4.2,1.6c1.6,0,2.9-0.4,3.8-1.3   C104.7,108,105.2,106.8,105.2,105.3z"/>
</g>
</symbol>



</svg>