<svg version="1" xmlns="http://www.w3.org/2000/svg" width="128" height="128" viewBox="-0.64 -8 128 128"><path fill="#B3B3B3" d="M74.88 67.84c7.68-3.2 13.76-7.68 18.24-13.12 4.48-5.44 6.72-11.52 6.72-18.24s-2.24-12.8-6.72-18.24C88.64 12.48 82.56 8 74.88 4.8 67.2 1.6 58.88 0 49.92 0S32.64 1.6 24.96 4.8C17.28 8 11.2 12.48 6.72 17.92S0 29.44 0 36.16c0 5.76 1.6 10.88 5.12 16 3.2 5.12 8 9.28 13.76 12.48-.32 1.28-.96 2.24-1.6 3.2s-.96 1.92-1.92 2.88c-.64.96-1.28 1.6-1.6 1.92-.32.64-.96 1.28-1.92 2.24s-1.28 1.6-1.6 1.92l-.32.32-.32.32-.32.32-.32.32.32.32v.958c0 .64.32.96.96 1.6 0 .64.64.64 1.28.64h.32c2.24-.32 4.48-.64 6.08-1.28 7.36-1.92 13.76-4.8 19.84-8.96 4.16.64 8.32 1.28 12.48 1.28 8.64.003 16.96-1.598 24.64-4.798z"/><path fill="#B3B3B3" d="M121.92 70.4c3.2-4.8 5.12-10.24 5.12-16s-1.92-11.2-5.44-16.32-8.32-9.28-14.4-12.48c.96 3.52 1.6 7.04 1.6 10.88 0 6.4-1.6 12.48-4.8 17.92-3.2 5.76-7.68 10.56-13.76 15.04-5.44 3.84-11.84 7.04-18.56 9.28-7.04 2.24-14.4 3.2-21.76 3.2-1.28 0-3.52 0-6.08-.32 9.6 6.08 20.8 9.28 33.6 9.28 4.16 0 8.32-.32 12.48-1.28 5.76 4.16 12.48 7.04 19.84 8.96 1.6.32 3.84.96 6.08 1.28.64 0 .96 0 1.6-.64.32-.32.64-.96.96-1.6v-.96l-.32-.32s0-.32-.32-.32c0-.32-.32-.32-.32-.32l-.32-.32c0-.318-.32-.318-.32-.318-.318-.32-.64-.96-1.6-1.92s-1.6-1.6-1.92-2.24-.96-1.28-1.6-1.92l-1.92-2.88c-.64-.96-.96-1.92-1.6-3.2 5.76-3.523 10.56-7.682 13.76-12.482z"/></svg>