<svg xmlns="http://www.w3.org/2000/svg" width="512" height="512" viewBox="0 0 511.626 511.626"><path d="M477.37 127.44c-22.842-28.074-53.87-50.25-93.075-66.523-39.204-16.272-82.035-24.41-128.478-24.41-34.643 0-67.762 4.805-99.357 14.417-31.595 9.61-58.812 22.602-81.653 38.97-22.845 16.37-41.018 35.832-54.534 58.385C6.757 170.832 0 194.483 0 219.227c0 28.55 8.61 55.3 25.837 80.234 17.227 24.93 40.778 45.87 70.664 62.81-2.095 7.612-4.57 14.847-7.425 21.694-2.855 6.852-5.424 12.474-7.708 16.85-2.286 4.378-5.376 9.234-9.28 14.563-3.9 5.327-6.85 9.088-8.85 11.274-1.996 2.19-5.28 5.812-9.85 10.85-4.565 5.047-7.517 8.328-8.848 9.854-.194.09-.954.952-2.286 2.567-1.33 1.615-2 2.423-2 2.423l-1.712 2.566c-.953 1.43-1.38 2.334-1.287 2.707.096.374-.094 1.332-.57 2.852-.477 1.526-.428 2.67.142 3.433v.284c.765 3.428 2.43 6.186 4.998 8.276 2.568 2.092 5.474 2.95 8.708 2.563 12.375-1.523 23.223-3.607 32.548-6.277 49.87-12.758 93.65-35.782 131.335-69.097 14.272 1.522 28.072 2.286 41.396 2.286 46.443 0 89.272-8.138 128.48-24.417 39.208-16.272 70.233-38.448 93.072-66.517 22.843-28.062 34.263-58.663 34.263-91.78 0-33.12-11.418-63.72-34.254-91.788z" fill="#c9c9ca"/></svg>