<svg xmlns="http://www.w3.org/2000/svg" width="512" height="512" viewBox="0 0 94.926 94.926"><path d="M55.93 47.463L94.307 9.09a2.118 2.118 0 0 0 0-2.994L88.833.62A2.124 2.124 0 0 0 87.335 0c-.562 0-1.1.224-1.498.62L47.463 38.994 9.09.62c-.796-.795-2.203-.794-2.996 0L.622 6.096a2.117 2.117 0 0 0 0 2.994l38.374 38.373L.622 85.836a2.117 2.117 0 0 0 0 2.994l5.473 5.476a2.123 2.123 0 0 0 2.995 0l38.374-38.374 38.374 38.374c.397.396.937.62 1.498.62s1.1-.224 1.498-.62l5.473-5.476a2.118 2.118 0 0 0 0-2.994L55.93 47.463z" fill="#696969"/></svg>