<svg version="1" xmlns="http://www.w3.org/2000/svg" width="128" height="128" viewBox="-0.64 -24.32 128 128"><path fill="#B3B3B3" d="M63.36 0C39.04 0 16.96 13.12.96 34.88c-1.28 1.92-1.28 4.16 0 6.08 16.32 21.76 38.4 34.88 62.4 34.88s46.4-13.12 62.4-34.88c1.28-1.92 1.28-4.16 0-6.08C109.76 13.44 87.68 0 63.36 0zm1.92 64.64c-16 .96-29.44-12.16-28.48-28.48.96-13.44 11.52-24 24.96-24.96 16-.96 29.44 12.16 28.48 28.48-.96 13.44-11.84 24-24.96 24.96z"/><path fill="#B3B3B3" d="M64.32 52.48c-8.64.64-15.68-6.72-15.36-15.36.32-7.04 6.4-13.12 13.44-13.44 8.64-.64 15.68 6.72 15.36 15.36-.32 7.04-6.08 12.8-13.44 13.44z"/></svg>