<svg version="1" xmlns="http://www.w3.org/2000/svg" width="128" height="128" viewBox="-0.533 -0.533 128 128"><path fill="#475993" d="M89.334 0H37.867C17.067 0 0 17.067 0 37.867v51.2c0 20.8 17.067 37.867 37.867 37.867h51.2c20.8 0 37.867-17.066 37.867-37.867v-51.2c0-20.8-16.8-37.867-37.6-37.867zm24.8 89.334c0 13.866-11.2 25.066-25.067 25.066h-51.2C24 114.133 12.8 102.934 12.8 89.334V37.867C12.8 24 24 12.8 37.867 12.8h51.2c13.867 0 25.066 11.2 25.066 25.066v51.468z"/><path fill="#475993" d="M80.267 31.467v11.467h-6.134c-1.866 0-2.933.533-3.466 1.6-.534.8-.534 1.867-.534 3.466v4.8h10.4L79.2 64.267h-9.333v33.067h-13.6V64.267H49.6V52.8h6.667v-6.934c0-6.933 2.4-11.467 7.2-13.333 2.4-.8 4.267-1.067 6.4-1.067h10.4z"/></svg>