<svg version="1" xmlns="http://www.w3.org/2000/svg" width="128" height="128" viewBox="-0.267 -0.267 128 128"><linearGradient id="a" gradientUnits="userSpaceOnUse" x1="114.553" y1="-43.987" x2="114.553" y2="3.261" gradientTransform="matrix(2.6667 -.004 -.004 -2.6667 -241.952 10.306)"><stop offset="0" stop-color="#E09B3D"/><stop offset=".3" stop-color="#C74C4D"/><stop offset=".6" stop-color="#C21975"/><stop offset="1" stop-color="#7024C4"/></linearGradient><path fill="url(#a)" d="M89.333 0H37.867C16.8.267 0 17.333 0 38.133V89.6c0 20.8 17.067 37.866 37.867 37.866h51.466c20.8 0 37.867-17.067 37.867-37.866V38.133C127.2 17.067 110.134 0 89.333 0zM114.4 89.6c0 13.867-11.2 25.067-25.067 25.067H37.867C24 114.667 12.8 103.467 12.8 89.6V38.134c0-13.867 11.2-25.066 25.067-25.066h51.466c13.867 0 25.066 11.2 25.066 25.066V89.6z"/><linearGradient id="b" gradientUnits="userSpaceOnUse" x1="115.569" y1="-43.252" x2="115.569" y2="3.995" gradientTransform="matrix(2.6667 .0177 .0177 -2.6667 -244.237 9.76)"><stop offset="0" stop-color="#E09B3D"/><stop offset=".3" stop-color="#C74C4D"/><stop offset=".6" stop-color="#C21975"/><stop offset="1" stop-color="#7024C4"/></linearGradient><path fill="url(#b)" d="M63.733 30.934c-18.133 0-33.067 14.667-33.067 32.8 0 18.133 14.667 33.066 32.8 33.066C81.6 96.8 96.532 82.134 96.532 64c0-18.133-14.398-33.066-32.8-33.066zM63.467 84c-11.2 0-20-9.066-20-20.267s9.066-20 20.267-20 20 9.067 20 20.267-9.067 20-20.267 20z"/><linearGradient id="c" gradientUnits="userSpaceOnUse" x1="127.939" y1="450.74" x2="127.939" y2="497.995" gradientTransform="rotate(.38 -200068.803 -37455.153) scale(2.6668)"><stop offset="0" stop-color="#E09B3D"/><stop offset=".3" stop-color="#C74C4D"/><stop offset=".6" stop-color="#C21975"/><stop offset="1" stop-color="#7024C4"/></linearGradient><circle fill="url(#c)" cx="96.8" cy="31.467" r="8"/></svg>