<svg version="1" id="Logo" xmlns="http://www.w3.org/2000/svg" viewBox="0 0 234 91"><style>.st0{fill:#0e0f0f}.st1{fill:none;stroke:#1b1917;stroke-miterlimit:10}</style><path class="st0" d="M44.3 3.9c3.6 0 6.4.7 8.4 2.1 2 1.4 3 3.5 3 6.3 0 1.4-.4 2.7-1.1 3.8-.7 1.1-1.8 1.9-3.3 2.5 1.8.4 3.2 1.2 4.1 2.5.9 1.3 1.4 2.8 1.4 4.5 0 2.9-1 5.1-2.9 6.6s-4.6 2.2-8.2 2.2h-15v-3.7l3.2-.6V8.2l-3.2-.6V3.9H44.3zm-4.2 12.8h4.4c1.6 0 2.9-.3 3.8-1 .9-.7 1.3-1.6 1.3-2.9 0-1.4-.4-2.4-1.3-3.1-.9-.7-2.2-1-4-1h-4.2v8zm0 4.2v8.8h5.6c1.6 0 2.9-.4 3.7-1.1s1.3-1.7 1.3-3.1c0-1.5-.4-2.6-1.1-3.4-.7-.8-1.9-1.2-3.4-1.2h-6.1zM78.8 21H68.4v8.7h9.8l.3-3.6h4.6v8.3h-24v-3.7l3.2-.6V8.2l-3.2-.6V3.9h24v8.3h-4.7l-.3-3.6h-9.7v7.7h10.3V21zM86.1 30.7l2.2-.3 9.3-26.5h6.3l9.2 26.5 2.2.3v3.7h-10.4v-3.7l2.1-.4-1.3-4.2h-9.9l-1.3 4.2 2.1.4v3.7H86.1v-3.7zm11.1-9h7L100.8 11h-.1l-3.5 10.7zM128.2 3.9v3.7l-3.2.6v15.9c0 2 .5 3.5 1.6 4.5s2.6 1.5 4.4 1.5c1.9 0 3.4-.5 4.5-1.5s1.6-2.5 1.6-4.5V8.2l-3.2-.6V3.9h12.6v3.7l-3.3.6v15.9c0 3.4-1.1 6.1-3.4 7.9s-5.2 2.8-8.9 2.8c-3.6 0-6.6-.9-8.8-2.8-2.2-1.9-3.4-4.5-3.4-7.9V8.2l-3.2-.6V3.9H128.2zM175.1 3.9V12h-4.7l-.3-3.4h-5.6v21.5l3.3.6v3.7h-12.6v-3.7l3.3-.6V8.6h-5.6l-.3 3.4H148V3.9h27.1zM188.6 7.6l-2.5.4 4.7 10h.1l4.7-10-2.5-.4V3.9h11.5v3.7l-2.5.4-8.3 15.6V30l3.3.6v3.7h-12.6v-3.7l3.3-.6v-6.7L179.6 8l-2.6-.4V3.9h11.5v3.7z"/><g><path class="st0" d="M53.7 58.2c2.4 0 4.5.8 6.1 2.4s2.4 3.7 2.4 6.3v2.6c0 2.6-.8 4.7-2.4 6.3-1.6 1.6-3.6 2.4-6.1 2.4h-8V77l2.2-.2V59.6l-2.2-.2v-1.2h8zm-4.2 1.4v17.2h4.2c2 0 3.6-.7 4.9-2.1 1.3-1.4 1.9-3.1 1.9-5.2v-2.6c0-2.1-.6-3.8-1.9-5.2-1.3-1.4-2.9-2.1-4.9-2.1h-4.2zM63.5 77l1.5-.1 7.1-18.7h1.6l7 18.7 1.5.1v1.2h-4.9V77l1.7-.1-1.6-4.5h-9l-1.7 4.5 1.7.1v1.2h-4.9V77zm5.4-6.1h7.9l-3.9-10.6h-.1l-3.9 10.6zM85.9 59.4l-1.9.1 5.4 9.8 5.4-9.8-1.9-.1v-1.2h5.5v1.2l-1.7.1-6.5 11.3v5.9l2.2.2v1.2h-6.1V77l2.2-.2v-6L82 59.6l-1.7-.1v-1.2h5.5v1.1zM115.1 58.2c2.1 0 3.7.4 4.9 1.3 1.2.9 1.7 2.2 1.7 3.9 0 1-.3 1.9-.9 2.7-.6.8-1.4 1.3-2.4 1.6 1.2.2 2.2.8 3 1.7.8.9 1.1 2 1.1 3.2 0 1.8-.6 3.2-1.7 4.1-1.2 1-2.7 1.4-4.6 1.4H107V77l2.2-.2V59.6l-2.2-.2v-1.2H115.1zm-4.2 9h4.6c1.4 0 2.6-.3 3.4-1 .8-.6 1.2-1.6 1.2-2.8 0-1.3-.4-2.2-1.3-2.9-.8-.6-2.1-1-3.7-1h-4.2v7.7zm0 1.3v8.3h5.3c1.5 0 2.6-.4 3.5-1.1.8-.7 1.3-1.7 1.3-3.1 0-1.2-.4-2.2-1.1-3-.8-.8-1.9-1.2-3.3-1.2h-5.7zM142.8 68.3c0 3-.8 5.4-2.4 7.3-1.6 1.9-3.7 2.8-6.2 2.8s-4.6-.9-6.2-2.8c-1.6-1.9-2.4-4.3-2.4-7.3V68c0-3 .8-5.4 2.4-7.3 1.6-1.9 3.6-2.8 6.2-2.8s4.6.9 6.3 2.8c1.6 1.9 2.4 4.3 2.4 7.3v.3zm-1.6-.3c0-2.6-.6-4.7-1.9-6.3-1.3-1.6-3-2.4-5.1-2.4-2.1 0-3.8.8-5 2.4-1.2 1.6-1.8 3.7-1.8 6.3v.3c0 2.6.6 4.7 1.9 6.3 1.2 1.6 2.9 2.4 5 2.4 2.2 0 3.9-.8 5.1-2.4 1.2-1.6 1.9-3.7 1.9-6.3V68zM163 68.3c0 3-.8 5.4-2.4 7.3-1.6 1.9-3.7 2.8-6.2 2.8s-4.6-.9-6.2-2.8c-1.6-1.9-2.4-4.3-2.4-7.3V68c0-3 .8-5.4 2.4-7.3 1.6-1.9 3.6-2.8 6.2-2.8s4.6.9 6.3 2.8c1.6 1.9 2.4 4.3 2.4 7.3v.3zm-1.7-.3c0-2.6-.6-4.7-1.9-6.3-1.3-1.6-3-2.4-5.1-2.4-2.1 0-3.8.8-5 2.4-1.2 1.6-1.8 3.7-1.8 6.3v.3c0 2.6.6 4.7 1.9 6.3 1.2 1.6 2.9 2.4 5 2.4 2.2 0 3.9-.8 5.1-2.4 1.2-1.6 1.9-3.7 1.9-6.3V68zM165.5 77l2.2-.2V59.6l-2.2-.2v-1.2h6.1v1.2l-2.2.2v7.8h2.7l6.7-7.9-1.9-.1v-1.2h5.6v1.2l-1.8.2-7.2 8.4 7.7 8.8 1.8.2v1.2h-5.7V77l1.9-.1-7.2-8.1h-2.7v8l2.2.2v1.2h-6.1V77z"/></g><circle class="st0" cx="12.2" cy="18.7" r="4.2"/><circle class="st0" cx="221.7" cy="19.2" r="4.2"/><path class="st1" d="M28 51.3h174.2M29.6 86.7h174.1"/></svg>