<svg version="1" xmlns="http://www.w3.org/2000/svg" viewBox="0 0 128 128"><style>.st0,.st1{fill:#28a1e2}.st1{stroke:#28a1e2;stroke-width:4;stroke-linecap:round;stroke-miterlimit:10}</style><path class="st0" d="M89.9.5H38.4C17.6.5.5 17.6.5 38.4v51.2c0 20.8 17.1 37.9 37.9 37.9h51.2c20.8 0 37.9-17.1 37.9-37.9V38.4C127.5 17.6 110.7.5 89.9.5zm24.8 89.4c0 13.9-11.2 25.1-25.1 25.1H38.4c-13.9-.3-25.1-11.5-25.1-25.1V38.4c0-13.9 11.2-25.1 25.1-25.1h51.2c13.9 0 25.1 11.2 25.1 25.1v51.5z" id="Слой_1"/><path class="st1" d="M81.7 92.8c-.5 0-1-.1-1.4-.4L64.5 81.6 56 87.7c-.7.5-1.5.6-2.3.3-.8-.3-1.4-.9-1.6-1.7l-4.3-16.2-15.2-5.8C31.6 64 31 63 31 62s.6-2 1.6-2.3l58-23.1c.3-.1.5-.2.8-.2h.3c.6 0 1.2.3 1.6.7l.1.1c.4.4.6.9.6 1.5v.7l-9.8 51.3c-.2.8-.7 1.5-1.5 1.8-.3.2-.7.3-1 .3zM65.9 76.5L80 86.1l7.6-39.9-27.5 26.4 5.8 3.9c-.1 0-.1 0 0 0zm-11.8-2.1l1.9 7.2 4.1-2.9-5.3-3.7c-.3-.2-.5-.4-.7-.6zM40.4 61.9l10.5 4c.7.3 1.3.9 1.5 1.7l1.3 5c.1-.6.3-1.1.8-1.5l26.2-25.2-40.3 16z" id="Capa_1"/></svg>