<svg version="1" xmlns="http://www.w3.org/2000/svg" width="128" height="128" viewBox="-0.533 -0.533 128 128"><path fill="#597DA3" d="M89.334 0H37.867C17.067 0 0 17.067 0 37.867v51.2c0 20.8 17.067 37.867 37.867 37.867h51.2c20.8 0 37.867-17.066 37.867-37.867v-51.2c0-20.8-16.8-37.867-37.6-37.867zm24.8 89.334c0 13.866-11.2 25.066-25.067 25.066h-51.2C24 114.133 12.8 102.934 12.8 89.334V37.867C12.8 24 24 12.8 37.867 12.8h51.2c13.867 0 25.066 11.2 25.066 25.066v51.468z"/><path fill="#597DA3" d="M93.867 80c0-.267-.268-.267-.268-.533-1.067-2.133-3.468-4.8-6.667-7.733-1.6-1.333-2.4-2.4-2.934-2.933-.8-1.066-.8-1.866-.534-2.933.267-.8 1.334-2.134 3.2-4.534 1.066-1.333 1.6-2.133 2.4-2.934 4-5.334 5.866-8.8 5.333-10.4l-.27-.268c-.263-.265-.53-.532-1.064-.532-.533-.267-1.333-.267-2.133 0H78.934l-.267.267c-.266.266-.266.266-.266.533-1.066 2.934-2.4 5.6-3.733 8-.8 1.333-1.6 2.667-2.4 3.733-.8 1.067-1.333 1.867-1.866 2.4-.532.534-1.065.8-1.333 1.333-.266.267-.8.533-.8.267-.267 0-.533 0-.533-.267l-.8-.8c-.267-.267-.267-.8-.533-1.333V48s-.267-.8-.267-1.067l-.8-.8c-.267-.267-.8-.267-1.066-.533-1.333-.267-2.933-.533-4.8-.533-4.267 0-7.2.267-8.533.8-.534.266-1.067.533-1.334 1.067-.533.533-.533.8-.267.8 1.333.267 2.4.8 2.933 1.6l.267.533c.267.267.267.8.533 1.6s.267 1.6.267 2.667V58.4c0 1.334-.267 2.134-.267 2.935 0 .8-.267 1.333-.533 1.6-.267.533-.267.8-.534.8 0 0 0 .267-.268.267s-.533.267-1.066.267c-.267 0-.8-.268-1.067-.534a3.216 3.216 0 0 1-1.334-1.333c-.533-.533-1.066-1.333-1.6-2.4-.534-1.066-1.333-2.133-1.867-3.733l-.533-1.07c-.267-.533-.8-1.6-1.333-2.934-.534-1.333-1.067-2.4-1.6-3.733-.267-.533-.533-.8-.8-1.066h-.267S40 47.2 39.734 47.2s-.533-.267-.8-.267h-9.6c-1.067 0-1.6.267-2.133.8l-.266.267v.533c0 .267 0 .534.267 1.067 1.334 3.2 2.934 6.4 4.534 9.6 1.6 3.2 3.2 5.6 4.267 7.467 1.334 1.866 2.4 3.733 3.734 5.333s2.133 2.667 2.4 3.2l1.067 1.066.8.8c.535.533 1.334 1.334 2.4 2.134 1.068.8 2.4 1.6 3.734 2.4 1.333.8 2.934 1.333 4.534 1.866 1.867.533 3.466.8 5.066.533h4c.8 0 1.333-.268 1.866-.8l.268-.268c0-.267.266-.267.266-.533v-1.067c0-1.067 0-1.867.268-2.667.267-.8.267-1.333.533-1.866.267-.534.533-.8.8-1.067l.533-.533h.267c.533-.267 1.334 0 1.867.533.8.533 1.6 1.333 2.133 2.134.8.8 1.6 1.6 2.4 2.666 1.066 1.066 1.867 1.867 2.4 2.134l.8.533c.532.267 1.065.533 1.865.8s1.334.267 1.867.267L90.934 84c.8 0 1.6-.267 2.133-.533s.8-.533.8-1.066V80z"/></svg>